<svg width="890" height="888" viewBox="0 0 890 888" fill="none" xmlns="http://www.w3.org/2000/svg">
<path d="M410 118.8L452.395 0L444.058 70.3361L466.7 63.9L425.868 180.9L437.9 101.7L410 118.8Z" fill="url(#paint0_linear_2_41)"/>
<g clip-path="url(#clip0_2_41)">
<path d="M399.344 481.531V690.906C399.344 738.562 428.901 774.63 488.016 799.109C521.089 812.911 557.286 819.812 596.609 819.812C635.932 819.812 672.13 812.911 705.203 799.109C764.318 774.63 793.875 738.562 793.875 690.906V343.25C793.875 295.594 764.318 259.526 705.203 235.047C672.13 221.245 635.932 214.344 596.609 214.344C557.286 214.344 521.089 221.245 488.016 235.047C428.901 259.526 399.344 295.594 399.344 343.25V401.844L473.562 437H477.469V343.25C477.469 325.281 493.224 310.047 524.734 297.547C546.609 288.953 570.568 284.656 596.609 284.656C622.651 284.656 646.609 288.953 668.484 297.547C699.995 310.047 715.75 325.281 715.75 343.25V690.906C715.75 708.875 699.995 724.109 668.484 736.609C646.609 745.203 622.651 749.5 596.609 749.5C570.568 749.5 546.609 745.203 524.734 736.609C493.224 724.109 477.469 708.875 477.469 690.906V552.625H613.406V548.719L581.766 481.531H399.344Z" fill="white"/>
<path d="M472.656 481.531V690.906C472.656 738.562 443.099 774.63 383.984 799.109C350.911 812.911 314.714 819.812 275.391 819.812C236.068 819.812 199.87 812.911 166.797 799.109C107.682 774.63 78.125 738.562 78.125 690.906V343.25C78.125 295.594 107.682 259.526 166.797 235.047C199.87 221.245 236.068 214.344 275.391 214.344C314.714 214.344 350.911 221.245 383.984 235.047C443.099 259.526 472.656 295.594 472.656 343.25V401.844L398.438 437H394.531V343.25C394.531 325.281 378.776 310.047 347.266 297.547C325.391 288.953 301.432 284.656 275.391 284.656C249.349 284.656 225.391 288.953 203.516 297.547C172.005 310.047 156.25 325.281 156.25 343.25V690.906C156.25 708.875 172.005 724.109 203.516 736.609C225.391 745.203 249.349 749.5 275.391 749.5C301.432 749.5 325.391 745.203 347.266 736.609C378.776 724.109 394.531 708.875 394.531 690.906V552.625H258.594V548.719L290.234 481.531H472.656Z" fill="white"/>
</g>
<defs>
<linearGradient id="paint0_linear_2_41" x1="438.35" y1="0" x2="438.35" y2="180.9" gradientUnits="userSpaceOnUse">
<stop stop-color="#EF476F"/>
<stop offset="0.658654" stop-color="#947BD3"/>
</linearGradient>
<clipPath id="clip0_2_41">
<rect width="814" height="624" fill="white" transform="translate(30 208)"/>
</clipPath>
</defs>
</svg>
